<svg width="70" height="49" viewBox="0 0 70 49" fill="none" xmlns="http://www.w3.org/2000/svg">
<path d="M61.8472 22.623C66.4663 25.0938 69.2593 29.7129 69.2593 34.7617C69.2593 42.3887 63.0288 48.5117 55.5093 48.5117H15.978C7.38428 48.5117 0.509277 41.6367 0.509277 33.043C0.509277 26.4902 4.69873 20.6895 10.8218 18.541C11.2515 8.44336 19.5229 0.386719 29.728 0.386719C36.0659 0.386719 41.7593 3.60938 45.1968 8.44336C46.8081 7.69141 48.5269 7.26172 50.353 7.26172C56.9058 7.26172 62.3843 12.7402 62.3843 19.293C62.3843 20.4746 62.1694 21.5488 61.8472 22.623ZM54.9722 45.0742C60.3433 45.0742 65.0698 41.3145 65.7144 36.0508C66.2515 31.2168 63.5659 27.0273 59.4839 25.3086C58.4097 24.8789 57.7651 23.6973 58.1948 22.623C58.9468 20.9043 59.1616 18.8633 58.5171 16.7148C57.6577 13.9219 55.187 11.666 52.394 11.0215C49.9233 10.4844 47.7749 10.9141 45.9487 11.9883C44.8745 12.6328 43.478 12.3105 42.8335 11.3438C39.2886 5.43555 32.0913 2.21289 24.3569 4.79102C18.2339 6.83203 14.1519 12.8477 14.2593 19.4004C14.2593 19.4004 14.2593 19.4004 14.2593 19.5078C14.2593 20.3672 13.6147 21.2266 12.7554 21.4414C7.27686 22.9453 3.30225 28.3164 3.94678 34.332C4.59131 40.5625 10.2847 45.0742 16.5151 45.0742H54.9722ZM27.4722 25.7383C26.8276 26.3828 25.646 26.3828 25.0015 25.7383C24.3569 25.0938 24.3569 23.9121 25.0015 23.2676L33.5952 14.6738C33.9175 14.3516 34.3472 14.1367 34.8843 14.1367C35.314 14.1367 35.7437 14.3516 36.0659 14.6738L44.6597 23.2676C45.3042 23.9121 45.3042 25.0938 44.6597 25.7383C44.0151 26.3828 42.8335 26.3828 42.189 25.7383L36.603 20.0449V38.1992C36.603 39.166 35.7437 39.918 34.8843 39.918C33.9175 39.918 33.1655 39.166 33.1655 38.1992V20.0449L27.4722 25.7383Z" fill="#6486E8"/>
</svg>
