<svg width="23" height="25" viewBox="0 0 23 25" fill="none" xmlns="http://www.w3.org/2000/svg">
<path d="M11.75 13.9258C13.8125 13.9258 15.5 15.6133 15.5 17.6758C15.5 18.0977 15.125 18.4258 14.75 18.4258H5.75C5.32812 18.4258 5 18.0977 5 17.6758C5 15.6133 6.64062 13.9258 8.75 13.9258H11.75ZM10.25 12.4258C8.5625 12.4258 7.25 11.1133 7.25 9.42578C7.25 7.78516 8.5625 6.42578 10.25 6.42578C11.8906 6.42578 13.25 7.78516 13.25 9.42578C13.25 11.1133 11.8906 12.4258 10.25 12.4258ZM22.25 15.4258C22.625 15.4258 23 15.8008 23 16.1758V19.1758C23 19.5977 22.625 19.9258 22.25 19.9258H21.5V15.4258H22.25ZM22.25 3.42578C22.625 3.42578 23 3.80078 23 4.17578V7.17578C23 7.59766 22.625 7.92578 22.25 7.92578H21.5V3.42578H22.25ZM22.25 9.42578C22.625 9.42578 23 9.80078 23 10.1758V13.1758C23 13.5977 22.625 13.9258 22.25 13.9258H21.5V9.42578H22.25ZM17 0.425781C18.6406 0.425781 20 1.78516 20 3.42578V21.4258C20 23.1133 18.6406 24.4258 17 24.4258H3.5C1.8125 24.4258 0.5 23.1133 0.5 21.4258V3.42578C0.5 1.78516 1.8125 0.425781 3.5 0.425781H17ZM17.75 21.4258V3.42578C17.75 3.05078 17.375 2.67578 17 2.67578H3.5C3.07812 2.67578 2.75 3.05078 2.75 3.42578V21.4258C2.75 21.8477 3.07812 22.1758 3.5 22.1758H17C17.375 22.1758 17.75 21.8477 17.75 21.4258Z" fill="#2D3C68"/>
</svg>
