<svg width="64" height="65" viewBox="0 0 64 65" fill="none" xmlns="http://www.w3.org/2000/svg">
<path d="M0 16.0742C0 7.23766 7.16344 0.0742188 16 0.0742188H48C56.8366 0.0742188 64 7.23766 64 16.0742V48.0742C64 56.9108 56.8366 64.0742 48 64.0742H16C7.16344 64.0742 0 56.9108 0 48.0742V16.0742Z" fill="#D8DDEE"/>
<path d="M46.875 24.0742C47.5833 24.4909 47.9583 25.1159 48 25.9492C48 26.5326 47.7917 27.0326 47.375 27.4492C46.9583 27.8659 46.4583 28.0742 45.875 28.0742H18.125C17.5417 28.0742 17.0417 27.8659 16.625 27.4492C16.2083 27.0326 16 26.5326 16 25.9492C16.0417 25.1159 16.4167 24.4909 17.125 24.0742L31.25 16.2617C31.75 16.0117 32.25 16.0117 32.75 16.2617L46.875 24.0742ZM30 24.0742C30 23.4909 30.1875 23.0117 30.5625 22.6367C30.9375 22.2617 31.4167 22.0742 32 22.0742C32.5833 22.0742 33.0625 22.2617 33.4375 22.6367C33.8125 23.0117 34 23.4909 34 24.0742C34 24.4492 33.9167 24.7826 33.75 25.0742H42.5L32 19.2617L21.5 25.0742H30.25C30.0833 24.7826 30 24.4492 30 24.0742ZM20 30.0742H23V40.0742H27V30.0742H30V40.0742H34V30.0742H37V40.0742H41V30.0742H44V40.0742H44.5C45.4167 40.1576 45.9167 40.6576 46 41.5742C45.9167 42.4909 45.4167 42.9909 44.5 43.0742H20C19.0833 42.9909 18.5833 42.4909 18.5 41.5742C18.5833 40.6576 19.0833 40.1576 20 40.0742V30.0742ZM46.5 45.0742C47.4167 45.1576 47.9167 45.6576 48 46.5742C47.9167 47.4909 47.4167 47.9909 46.5 48.0742H18C17.0833 47.9909 16.5833 47.4909 16.5 46.5742C16.5833 45.6576 17.0833 45.1576 18 45.0742H46.5Z" fill="#2D3C68"/>
</svg>
