<svg width="17" height="16" viewBox="0 0 17 16" fill="none" xmlns="http://www.w3.org/2000/svg">
<g clip-path="url(#clip0_1458_98)">
<path d="M5.57812 14.0001C6.0651 14.0456 6.33073 14.3183 6.375 14.8183C6.33073 15.3183 6.0651 15.591 5.57812 15.6365H3.1875C2.27995 15.6138 1.52734 15.2956 0.929687 14.682C0.332031 14.0684 0.0221354 13.2956 0 12.3638V3.6365C0.0221354 2.70468 0.332031 1.93195 0.929687 1.31831C1.52734 0.704679 2.27995 0.386497 3.1875 0.36377H5.57812C6.0651 0.409224 6.33073 0.681951 6.375 1.18195C6.33073 1.68195 6.0651 1.95468 5.57812 2.00013H3.1875C2.74479 2.02286 2.36849 2.18195 2.05859 2.47741C1.77083 2.79559 1.61589 3.18195 1.59375 3.6365V12.3638C1.61589 12.8183 1.77083 13.2046 2.05859 13.5229C2.36849 13.8183 2.74479 13.9774 3.1875 14.0001H5.57812ZM16.7344 7.42057C16.9115 7.5797 17 7.78421 17 8.03424C17 8.26151 16.9115 8.45468 16.7344 8.61381L11.6875 13.182C11.4661 13.3638 11.2116 13.4547 10.9238 13.4547C10.7689 13.4547 10.6139 13.4206 10.459 13.3524C10.0605 13.1478 9.85022 12.807 9.82812 12.3297V10.4547H5.84375C5.46745 10.4547 5.15755 10.3183 4.91406 10.0456C4.64844 9.79562 4.51562 9.47737 4.51562 9.09104V6.90922C4.51562 6.52286 4.64844 6.20468 4.91406 5.95468C5.15755 5.68195 5.46745 5.54559 5.84375 5.54559H9.82812V3.67059C9.85022 3.19331 10.0605 2.85241 10.459 2.64786C10.9017 2.46605 11.3112 2.52286 11.6875 2.81831L16.7344 7.42057ZM11.4219 11.2046L15.0078 8.00013L11.4219 4.7615V7.14786H6.10937V8.78421H11.4219V11.2046Z" fill="#333333"/>
</g>
<defs>
<clipPath id="clip0_1458_98">
<rect width="17" height="16" fill="white"/>
</clipPath>
</defs>
</svg>
