<svg width="44" height="44" viewBox="0 0 44 44" fill="none" xmlns="http://www.w3.org/2000/svg">
<rect x="1" y="1" width="42" height="42" rx="21" fill="url(#paint0_linear_4644_1456)"/>
<rect x="1" y="1" width="42" height="42" rx="21" stroke="#2D3C68" stroke-width="2"/>
<path d="M22 22.5C20.5938 22.474 19.4089 21.9922 18.4453 21.0547C17.5078 20.0911 17.026 18.9062 17 17.5C17.026 16.0938 17.5078 14.9089 18.4453 13.9453C19.4089 13.0078 20.5938 12.526 22 12.5C23.4062 12.526 24.5911 13.0078 25.5547 13.9453C26.4922 14.9089 26.974 16.0938 27 17.5C26.974 18.9062 26.4922 20.0911 25.5547 21.0547C24.5911 21.9922 23.4062 22.474 22 22.5ZM23.9922 24.375C25.8932 24.4271 27.4818 25.0911 28.7578 26.3672C30.0339 27.6432 30.6979 29.2318 30.75 31.1328C30.75 31.5234 30.6198 31.849 30.3594 32.1094C30.099 32.3698 29.7734 32.5 29.3828 32.5H14.6172C14.2266 32.5 13.901 32.3698 13.6406 32.1094C13.3802 31.849 13.25 31.5234 13.25 31.1328C13.3021 29.2318 13.9661 27.6432 15.2422 26.3672C16.5182 25.0911 18.1068 24.4271 20.0078 24.375H23.9922Z" fill="#2D3C68"/>
<defs>
<linearGradient id="paint0_linear_4644_1456" x1="-2.384e-08" y1="9.59637" x2="44" y2="34.4036" gradientUnits="userSpaceOnUse">
<stop stop-color="#6D82C0"/>
<stop offset="1" stop-color="#CDB060"/>
</linearGradient>
</defs>
</svg>
