<svg width="25" height="25" viewBox="0 0 25 25" fill="none" xmlns="http://www.w3.org/2000/svg">
<path d="M17.8857 10.5742C18.9795 10.5742 19.8857 11.4805 19.8857 12.5742V18.5742C19.8857 19.6992 18.9795 20.5742 17.8857 20.5742H7.88574C6.76074 20.5742 5.88574 19.6992 5.88574 18.5742V12.5742C5.88574 11.4805 6.76074 10.5742 7.88574 10.5742H8.88574V8.57422C8.88574 6.38672 10.667 4.57422 12.8857 4.57422C15.0732 4.57422 16.8857 6.38672 16.8857 8.57422V10.5742H17.8857ZM10.3857 8.57422V10.5742H15.3857V8.57422C15.3857 7.19922 14.2607 6.07422 12.8857 6.07422C11.4795 6.07422 10.3857 7.19922 10.3857 8.57422ZM18.3857 18.5742V12.5742C18.3857 12.3242 18.1357 12.0742 17.8857 12.0742H7.88574C7.60449 12.0742 7.38574 12.3242 7.38574 12.5742V18.5742C7.38574 18.8555 7.60449 19.0742 7.88574 19.0742H17.8857C18.1357 19.0742 18.3857 18.8555 18.3857 18.5742ZM12.8857 14.0742C13.292 14.0742 13.6357 14.418 13.6357 14.8242V16.3242C13.6357 16.7617 13.292 17.0742 12.8857 17.0742C12.4482 17.0742 12.1357 16.7617 12.1357 16.3242V14.8242C12.1357 14.418 12.4482 14.0742 12.8857 14.0742Z" fill="#897846"/>
</svg>
