<svg width="13" height="10" viewBox="0 0 13 10" fill="none" xmlns="http://www.w3.org/2000/svg">
<path d="M6.88574 1.34766C6.88574 0.878906 7.2373 0.574219 7.63574 0.574219C7.7998 0.574219 7.96387 0.644531 8.10449 0.761719L12.6045 4.51172C12.9561 4.81641 12.9561 5.35547 12.6045 5.66016L8.10449 9.41016C7.96387 9.52734 7.7998 9.57422 7.63574 9.57422C7.2373 9.57422 6.88574 9.29297 6.88574 8.82422V1.34766ZM8.01074 2.14453V8.02734L11.5498 5.07422L8.01074 2.14453ZM0.885742 1.34766C0.885742 1.06641 1.02637 0.808594 1.26074 0.667969C1.49512 0.550781 1.7998 0.550781 2.03418 0.714844L5.85449 3.15234C6.13574 3.31641 6.20605 3.66797 6.04199 3.92578C5.87793 4.18359 5.52637 4.25391 5.26855 4.08984L2.01074 2.02734V8.14453L5.26855 6.08203C5.52637 5.91797 5.87793 5.98828 6.04199 6.24609C6.20605 6.50391 6.13574 6.85547 5.85449 7.01953L2.03418 9.45703C1.89355 9.55078 1.75293 9.57422 1.63574 9.57422C1.49512 9.57422 1.37793 9.55078 1.26074 9.50391C1.02637 9.36328 0.885742 9.10547 0.885742 8.82422V1.34766Z" fill="#9C3078"/>
</svg>
