<svg width="25" height="25" viewBox="0 0 25 25" fill="none" xmlns="http://www.w3.org/2000/svg">
<path d="M19.3843 7.07422C19.6343 7.07422 19.8843 7.32422 19.8843 7.57422V8.07422C19.8843 8.35547 19.6343 8.57422 19.3843 8.57422H18.8843V18.5742C18.8843 19.6992 17.978 20.5742 16.8843 20.5742H8.88428C7.75928 20.5742 6.88428 19.6992 6.88428 18.5742V8.57422H6.38428C6.10303 8.57422 5.88428 8.35547 5.88428 8.07422V7.57422C5.88428 7.32422 6.10303 7.07422 6.38428 7.07422H8.94678L10.0093 5.32422C10.2905 4.85547 10.7593 4.57422 11.2905 4.57422H14.4468C14.978 4.57422 15.4468 4.85547 15.728 5.32422L16.7905 7.07422H19.3843ZM11.228 6.16797L10.6968 7.07422H15.0405L14.5093 6.16797C14.478 6.13672 14.4155 6.07422 14.353 6.07422H11.4155C11.3218 6.07422 11.2593 6.13672 11.228 6.16797ZM16.8843 19.0742C17.1343 19.0742 17.3843 18.8555 17.3843 18.5742V8.57422H8.38428V18.5742C8.38428 18.8555 8.60303 19.0742 8.88428 19.0742H16.8843ZM12.8843 17.5742C12.603 17.5742 12.3843 17.3555 12.3843 17.0742V10.5742C12.3843 10.3242 12.603 10.0742 12.8843 10.0742C13.1343 10.0742 13.3843 10.3242 13.3843 10.5742V17.0742C13.3843 17.3555 13.1343 17.5742 12.8843 17.5742ZM10.3843 17.5742C10.103 17.5742 9.88428 17.3555 9.88428 17.0742V10.5742C9.88428 10.3242 10.103 10.0742 10.3843 10.0742C10.6343 10.0742 10.8843 10.3242 10.8843 10.5742V17.0742C10.8843 17.3555 10.6343 17.5742 10.3843 17.5742ZM15.3843 17.5742C15.103 17.5742 14.8843 17.3555 14.8843 17.0742V10.5742C14.8843 10.3242 15.103 10.0742 15.3843 10.0742C15.6343 10.0742 15.8843 10.3242 15.8843 10.5742V17.0742C15.8843 17.3555 15.6343 17.5742 15.3843 17.5742Z" fill="#808080"/>
</svg>
