<svg width="19" height="21" viewBox="0 0 19 21" fill="none" xmlns="http://www.w3.org/2000/svg">
<path d="M17.7607 18.75C18.3701 18.75 18.8857 19.2656 18.8857 19.875C18.8857 20.5312 18.3701 21 17.7607 21H2.01074C1.35449 21 0.885742 20.5312 0.885742 19.875C0.885742 19.2656 1.35449 18.75 2.01074 18.75H17.7607ZM15.042 8.25C15.4639 7.78125 16.167 7.78125 16.6357 8.20312C17.1045 8.625 17.1045 9.32812 16.6826 9.79688L10.6826 16.1719C10.2607 16.6406 9.46387 16.6406 9.04199 16.1719L3.04199 9.79688C2.62012 9.32812 2.62012 8.625 3.08887 8.20312C3.32324 8.01562 3.60449 7.92188 3.88574 7.92188C4.16699 7.92188 4.44824 8.01562 4.68262 8.25L8.76074 12.5625V1.17188C8.76074 0.515625 9.22949 0 9.88574 0C10.4951 0 11.0107 0.515625 11.0107 1.17188V12.5625L15.042 8.25Z" fill="#2D3C68"/>
</svg>
