<svg width="16" height="13" viewBox="0 0 16 13" fill="none" xmlns="http://www.w3.org/2000/svg">
<path d="M6.44531 7.19922C7.58594 7.23047 8.53906 7.62891 9.30469 8.39453C10.0703 9.16016 10.4688 10.1133 10.5 11.2539C10.5 11.4883 10.4219 11.6836 10.2656 11.8398C10.1094 11.9961 9.91406 12.0742 9.67969 12.0742H0.820312C0.585938 12.0742 0.390625 11.9961 0.234375 11.8398C0.078125 11.6836 0 11.4883 0 11.2539C0.03125 10.1133 0.429687 9.16016 1.19531 8.39453C1.96094 7.62891 2.91406 7.23047 4.05469 7.19922H6.44531ZM1.14844 10.9492H9.35156C9.25781 10.1992 8.9375 9.57422 8.39062 9.07422C7.85938 8.58984 7.21094 8.33984 6.44531 8.32422H4.05469C3.28906 8.33984 2.63281 8.58984 2.08594 9.07422C1.55469 9.57422 1.24219 10.1992 1.14844 10.9492ZM5.25 6.07422C4.40625 6.05859 3.69531 5.76953 3.11719 5.20703C2.55469 4.62891 2.26562 3.91797 2.25 3.07422C2.26562 2.23047 2.55469 1.51953 3.11719 0.941406C3.69531 0.378906 4.40625 0.0898438 5.25 0.0742188C6.09375 0.0898438 6.80469 0.378906 7.38281 0.941406C7.94531 1.51953 8.23438 2.23047 8.25 3.07422C8.23438 3.91797 7.94531 4.62891 7.38281 5.20703C6.80469 5.76953 6.09375 6.05859 5.25 6.07422ZM5.25 1.19922C4.71875 1.21484 4.27344 1.39453 3.91406 1.73828C3.57031 2.09766 3.39062 2.54297 3.375 3.07422C3.39062 3.60547 3.57031 4.05078 3.91406 4.41016C4.27344 4.75391 4.71875 4.93359 5.25 4.94922C5.78125 4.93359 6.22656 4.75391 6.58594 4.41016C6.92969 4.05078 7.10938 3.60547 7.125 3.07422C7.10938 2.54297 6.92969 2.09766 6.58594 1.73828C6.22656 1.39453 5.78125 1.21484 5.25 1.19922ZM14.8125 3.21484C15.0469 3.48047 15.0625 3.74609 14.8594 4.01172L12.4219 6.63672C12.3125 6.76172 12.1719 6.82422 12 6.82422C11.8438 6.82422 11.7109 6.76953 11.6016 6.66016L10.2891 5.34766C10.0703 5.08203 10.0703 4.81641 10.2891 4.55078C10.5547 4.33203 10.8203 4.33203 11.0859 4.55078L11.9766 5.44141L14.0156 3.26172C14.2812 3.02734 14.5469 3.01172 14.8125 3.21484Z" fill="#2D3C68"/>
</svg>
