<svg width="18" height="26" viewBox="0 0 18 26" fill="none" xmlns="http://www.w3.org/2000/svg">
<path d="M17.3843 7.07422V16.8242C17.3843 21.6523 13.2593 25.4961 8.3374 25.0742C4.07178 24.6992 0.884277 20.9023 0.884277 16.5898V11.1992C0.884277 10.5898 1.35303 10.0742 2.00928 10.0742C2.61865 10.0742 3.13428 10.5898 3.13428 11.1992V16.5898C3.13428 19.7305 5.61865 22.6367 8.7124 22.8242C12.228 23.0586 15.1343 20.293 15.1343 16.8242V7.30859C15.1343 5.33984 13.6812 3.55859 11.7124 3.37109C9.4624 3.18359 7.63428 4.91797 7.63428 7.07422V16.8242C7.63428 17.7617 8.43115 18.4648 9.36865 18.3242C10.1187 18.1836 10.6343 17.5273 10.6343 16.7773V8.19922C10.6343 7.58984 11.103 7.07422 11.7593 7.07422C12.3687 7.07422 12.8843 7.58984 12.8843 8.19922V16.6367C12.8843 18.6055 11.4312 20.3867 9.4624 20.5742C7.2124 20.7617 5.38428 19.0273 5.38428 16.8242V7.35547C5.38428 4.21484 7.86865 1.30859 10.9624 1.12109C14.478 0.886719 17.3843 3.65234 17.3843 7.07422Z" fill="#2D3C68"/>
</svg>
