<svg width="41" height="41" viewBox="0 0 41 41" fill="none" xmlns="http://www.w3.org/2000/svg">
<rect x="0.510742" y="0.648438" width="40" height="40" rx="20" fill="#2D3C68"/>
<path d="M25.5107 12.6484C26.292 12.6484 26.5107 13.3984 26.5107 13.6484V26.6484C26.5107 26.9609 26.2607 27.6484 25.5107 27.6484C25.292 27.6484 25.0107 27.5547 24.8857 27.4297L22.1982 25.3047C20.8857 24.2422 19.1982 23.6484 17.5107 23.6484H14.5107C13.3857 23.6484 12.5107 22.7734 12.5107 21.6484V18.6484C12.5107 17.5547 13.3857 16.6484 14.5107 16.6484H17.5107C19.1982 16.6484 20.8857 16.0859 22.2295 15.0234L24.8857 12.8984C25.042 12.7422 25.2607 12.6484 25.5107 12.6484ZM17.5107 22.6484V17.6484H14.5107C13.9482 17.6484 13.5107 18.1172 13.5107 18.6484V21.6484C13.5107 22.2109 13.9482 22.6484 14.5107 22.6484H17.5107ZM25.4795 26.6484C25.4795 26.6484 25.5107 26.6484 25.5107 26.6172V13.6797H25.4795L22.8232 15.8047C21.5732 16.8047 20.0732 17.3984 18.5107 17.5859V22.7422C20.0732 22.9297 21.5732 23.5234 22.8232 24.5234L25.4795 26.6484ZM18.4795 24.6484C18.5107 25.4609 19.1357 26.2422 19.1357 26.2422C19.4795 26.6484 19.6045 27.2422 19.417 27.7422C19.1982 28.3047 18.7295 28.6484 18.1982 28.6484H16.5732C16.167 28.6484 15.792 28.4609 15.542 28.1172C15.4482 27.9609 14.4482 26.4922 14.5107 24.6484C14.5107 24.3672 14.7295 24.1484 15.0107 24.1484C15.292 24.1797 15.5107 24.3984 15.5107 24.6797C15.4482 26.2422 16.3232 27.4922 16.3857 27.5234C16.417 27.6172 16.5107 27.6484 16.5732 27.6484H18.1982C18.292 27.6484 18.417 27.5547 18.4482 27.4297C18.542 27.2422 18.4795 27.0234 18.3857 26.8984C18.3857 26.8984 17.5107 25.8672 17.4795 24.6797C17.4795 24.3984 17.6982 24.1797 17.9795 24.1484C18.2607 24.1797 18.4795 24.3672 18.4795 24.6484ZM28.0107 18.6484C28.2607 18.6484 28.5107 18.8984 28.5107 19.1484V21.1484C28.5107 21.4297 28.2607 21.6484 28.0107 21.6484C27.7295 21.6484 27.5107 21.4297 27.5107 21.1484V19.1484C27.5107 18.8984 27.7295 18.6484 28.0107 18.6484Z" fill="white"/>
</svg>
