<svg width="18" height="25" viewBox="0 0 18 25" fill="none" xmlns="http://www.w3.org/2000/svg">
<path d="M9 0.425781C13.9688 0.425781 18 4.45703 18 9.42578C18 13.082 16.7344 14.1133 9.89062 23.957C9.65625 24.2852 9.32812 24.4258 9 24.4258C8.625 24.4258 8.29688 24.2852 8.0625 23.957C1.21875 14.1133 0 13.082 0 9.42578C0 4.45703 3.98438 0.425781 9 0.425781ZM9 21.332C9.79688 20.1602 10.5469 19.082 11.2031 18.1914C15.2812 12.3789 15.75 11.6289 15.75 9.42578C15.75 5.72266 12.7031 2.67578 9 2.67578C5.25 2.67578 2.25 5.72266 2.25 9.42578C2.25 11.6289 2.67188 12.3789 6.75 18.1914C7.40625 19.082 8.15625 20.1602 9 21.332ZM9 5.67578C11.0625 5.67578 12.75 7.36328 12.75 9.42578C12.75 11.5352 11.0625 13.1758 9 13.1758C6.89062 13.1758 5.25 11.5352 5.25 9.42578C5.25 7.36328 6.89062 5.67578 9 5.67578ZM9 10.9258C9.79688 10.9258 10.5 10.2695 10.5 9.42578C10.5 8.62891 9.79688 7.92578 9 7.92578C8.15625 7.92578 7.5 8.62891 7.5 9.42578C7.5 10.2695 8.15625 10.9258 9 10.9258Z" fill="#2D3C68"/>
</svg>
