<svg width="24" height="19" viewBox="0 0 24 19" fill="none" xmlns="http://www.w3.org/2000/svg">
<path d="M21 0.425781C22.6406 0.425781 24 1.78516 24 3.42578V15.4258C24 17.1133 22.6406 18.4258 21 18.4258H3C1.3125 18.4258 0 17.1133 0 15.4258V3.42578C0 1.78516 1.3125 0.425781 3 0.425781H21ZM3 2.67578C2.57812 2.67578 2.25 3.05078 2.25 3.42578V4.50391L10.0312 11.0195C11.1094 11.9102 12.8438 11.9102 13.9219 11.0195L21.75 4.50391V3.42578C21.75 3.05078 21.375 2.67578 21 2.67578H3ZM21 16.1758C21.375 16.1758 21.75 15.8477 21.75 15.4258V7.41016L15.3281 12.7539C14.3906 13.5039 13.2188 13.9727 12 13.9727C10.7344 13.9727 9.5625 13.5039 8.625 12.7539L2.25 7.41016V15.4258C2.25 15.8477 2.57812 16.1758 3 16.1758H21Z" fill="#2D3C68"/>
</svg>
