<svg width="24" height="22" viewBox="0 0 24 22" fill="none" xmlns="http://www.w3.org/2000/svg">
<path d="M7.125 4.55078C7.75 4.58203 8.28125 4.80078 8.71875 5.20703C9.125 5.64453 9.34375 6.17578 9.375 6.80078C9.34375 7.42578 9.125 7.95703 8.71875 8.39453C8.28125 8.80078 7.75 9.01953 7.125 9.05078C6.5 9.01953 5.96875 8.80078 5.53125 8.39453C5.125 7.95703 4.90625 7.42578 4.875 6.80078C4.90625 6.17578 5.125 5.64453 5.53125 5.20703C5.96875 4.80078 6.5 4.58203 7.125 4.55078ZM20.9531 0.425781C21.8281 0.457031 22.5469 0.753906 23.1094 1.31641C23.6406 1.87891 23.9219 2.58203 23.9531 3.42578V18.4258C23.9219 19.2695 23.625 19.9727 23.0625 20.5352C22.5 21.0977 21.7969 21.3945 20.9531 21.4258H2.95312C2.14062 21.3945 1.45312 21.0977 0.890625 20.5352C0.328125 19.9727 0.03125 19.2695 0 18.4258V3.42578C0.03125 2.58203 0.328125 1.87891 0.890625 1.31641C1.45312 0.753906 2.14062 0.457031 2.95312 0.425781H20.9531ZM21.7031 18.0977H21.75V3.42578C21.7188 2.95703 21.4688 2.70703 21 2.67578H3C2.53125 2.70703 2.28125 2.95703 2.25 3.42578V18.3789L5.8125 13.9727C5.96875 13.7852 6.1875 13.6914 6.46875 13.6914C6.78125 13.6914 7.01562 13.7852 7.17188 13.9727L8.90625 16.1289L13.9219 9.37891C14.0781 9.16016 14.3125 9.05078 14.625 9.05078C14.9375 9.05078 15.1562 9.16016 15.2812 9.37891L21.7031 18.0977Z" fill="#2D3C68"/>
</svg>
