<svg width="16" height="16" viewBox="0 0 16 16" fill="none" xmlns="http://www.w3.org/2000/svg">
<path d="M8 0C9.5 0.0208333 10.8438 0.385417 12.0312 1.09375C13.2396 1.80208 14.1979 2.76042 14.9062 3.96875C15.6146 5.15625 15.9792 6.5 16 8C15.9792 9.5 15.6146 10.8438 14.9062 12.0312C14.1979 13.2396 13.2396 14.1979 12.0312 14.9062C10.8438 15.6146 9.5 15.9792 8 16C6.35417 15.9792 4.88542 15.5417 3.59375 14.6875C3.23958 14.3958 3.15625 14.0417 3.34375 13.625C3.65625 13.2708 4.01042 13.2083 4.40625 13.4375C5.44792 14.125 6.64583 14.4792 8 14.5C9.83333 14.4583 11.3646 13.8229 12.5938 12.5938C13.8229 11.3646 14.4583 9.83333 14.5 8C14.4583 6.16667 13.8229 4.63542 12.5938 3.40625C11.3646 2.17708 9.83333 1.54167 8 1.5C6.83333 1.52083 5.78125 1.79167 4.84375 2.3125C3.88542 2.85417 3.11458 3.58333 2.53125 4.5H4.25C4.70833 4.54167 4.95833 4.79167 5 5.25C4.95833 5.70833 4.70833 5.95833 4.25 6H0.75C0.291667 5.95833 0.0416667 5.70833 0 5.25V1.75C0.0416667 1.29167 0.291667 1.04167 0.75 1C1.20833 1.04167 1.45833 1.29167 1.5 1.75V3.34375C2.22917 2.32292 3.15625 1.51042 4.28125 0.90625C5.40625 0.322917 6.64583 0.0208333 8 0ZM8 4C8.45833 4.04167 8.70833 4.29167 8.75 4.75V7.6875L10.75 9.71875C11.0625 10.0729 11.0625 10.4167 10.75 10.75C10.4167 11.0625 10.0729 11.0625 9.71875 10.75L7.46875 8.5C7.32292 8.375 7.25 8.20833 7.25 8V4.75C7.29167 4.29167 7.54167 4.04167 8 4Z" fill="#333333"/>
</svg>
