<svg width="40" height="41" viewBox="0 0 40 41" fill="none" xmlns="http://www.w3.org/2000/svg">
<rect x="0.00927734" y="0.0742188" width="40" height="40" rx="20" fill="#088E26"/>
<path d="M20.0093 12.5742C24.1343 12.5742 27.5093 15.9492 27.5093 20.0742C27.5093 24.2305 24.1343 27.5742 20.0093 27.5742C15.853 27.5742 12.5093 24.2305 12.5093 20.0742C12.5093 15.9492 15.853 12.5742 20.0093 12.5742ZM23.603 18.6992C23.9468 18.3555 23.9468 17.8242 23.603 17.4805C23.2593 17.1367 22.728 17.1367 22.3843 17.4805L19.0093 20.8555L17.603 19.4805C17.2593 19.1367 16.728 19.1367 16.3843 19.4805C16.0405 19.8242 16.0405 20.3555 16.3843 20.6992L18.3843 22.6992C18.5405 22.8867 18.7593 22.9492 19.0093 22.9492C19.228 22.9492 19.4468 22.8867 19.603 22.6992L23.603 18.6992Z" fill="white"/>
</svg>
