<svg width="19" height="25" viewBox="0 0 19 25" fill="none" xmlns="http://www.w3.org/2000/svg">
<path d="M4.63428 12.0742C4.63428 11.2773 5.29053 10.5742 6.13428 10.5742H13.6343C14.4312 10.5742 15.1343 11.2773 15.1343 12.0742V15.0742C15.1343 15.918 14.4312 16.5742 13.6343 16.5742H6.13428C5.29053 16.5742 4.63428 15.918 4.63428 15.0742V12.0742ZM17.9937 4.48047C18.5562 5.04297 18.8843 5.79297 18.8843 6.58984V21.0742C18.8843 22.7617 17.5249 24.0742 15.8843 24.0742H3.88428C2.19678 24.0742 0.884277 22.7617 0.884277 21.0742V3.07422C0.884277 1.43359 2.19678 0.0742188 3.88428 0.0742188H12.3687C13.1655 0.0742188 13.9155 0.402344 14.478 0.964844L17.9937 4.48047ZM16.6343 21.0742V7.57422H12.8843C12.0405 7.57422 11.3843 6.91797 11.3843 6.07422V2.37109H3.88428C3.4624 2.37109 3.13428 2.69922 3.13428 3.12109V21.0742C3.13428 21.4961 3.4624 21.8242 3.88428 21.8242H15.8843C16.2593 21.8242 16.6343 21.4961 16.6343 21.0742ZM5.38428 6.07422C4.9624 6.07422 4.63428 5.74609 4.63428 5.32422C4.63428 4.94922 4.9624 4.57422 5.38428 4.57422H9.13428C9.50928 4.57422 9.88428 4.94922 9.88428 5.32422C9.88428 5.74609 9.50928 6.07422 9.13428 6.07422H5.38428ZM5.38428 9.07422C4.9624 9.07422 4.63428 8.74609 4.63428 8.32422C4.63428 7.94922 4.9624 7.57422 5.38428 7.57422H9.13428C9.50928 7.57422 9.88428 7.94922 9.88428 8.32422C9.88428 8.74609 9.50928 9.07422 9.13428 9.07422H5.38428ZM14.3843 18.0742C14.7593 18.0742 15.1343 18.4492 15.1343 18.8242C15.1343 19.2461 14.7593 19.5742 14.3843 19.5742H10.6343C10.2124 19.5742 9.88428 19.2461 9.88428 18.8242C9.88428 18.4492 10.2124 18.0742 10.6343 18.0742H14.3843Z" fill="#2D3C68"/>
</svg>
