<svg width="24" height="23" viewBox="0 0 24 23" fill="none" xmlns="http://www.w3.org/2000/svg">
<rect x="3.88574" y="3.5" width="16" height="16" rx="8" fill="white"/>
<path d="M11.8857 0.25C18.0732 0.25 23.1357 5.3125 23.1357 11.5C23.1357 17.7344 18.0732 22.75 11.8857 22.75C5.65137 22.75 0.635742 17.7344 0.635742 11.5C0.635742 5.3125 5.65137 0.25 11.8857 0.25ZM15.6357 13.75L13.4326 11.5L15.6357 9.29688C16.1045 8.875 16.1045 8.17188 15.6357 7.75C15.2139 7.28125 14.5107 7.28125 14.0889 7.75L11.8857 9.95312L9.63574 7.75C9.21387 7.28125 8.51074 7.28125 8.08887 7.75C7.62012 8.17188 7.62012 8.875 8.08887 9.29688L10.292 11.5L8.08887 13.75C7.62012 14.1719 7.62012 14.875 8.08887 15.2969C8.51074 15.7656 9.21387 15.7656 9.63574 15.2969L11.8857 13.0938L14.0889 15.2969C14.5107 15.7656 15.2139 15.7656 15.6357 15.2969C16.1045 14.875 16.1045 14.1719 15.6357 13.75Z" fill="#333333"/>
</svg>
