<svg width="41" height="40" viewBox="0 0 41 40" fill="none" xmlns="http://www.w3.org/2000/svg">
<rect x="0.5" width="40" height="40" rx="20" fill="#088E26"/>
<path d="M12.5 20C12.5208 18.5 12.8854 17.1562 13.5938 15.9688C14.3021 14.7604 15.2604 13.8021 16.4688 13.0938C17.6562 12.3854 19 12.0208 20.5 12C22 12.0208 23.3438 12.3854 24.5312 13.0938C25.7396 13.8021 26.6979 14.7604 27.4062 15.9688C28.1146 17.1562 28.4792 18.5 28.5 20C28.4792 21.5 28.1146 22.8438 27.4062 24.0312C26.6979 25.2396 25.7396 26.1979 24.5312 26.9062C23.3438 27.6146 22 27.9792 20.5 28C19 27.9792 17.6562 27.6146 16.4688 26.9062C15.2604 26.1979 14.3021 25.2396 13.5938 24.0312C12.8854 22.8438 12.5208 21.5 12.5 20ZM24.125 18.625C24.2917 18.4375 24.375 18.2292 24.375 18C24.375 17.7708 24.2917 17.5625 24.125 17.375C23.9375 17.2083 23.7292 17.125 23.5 17.125C23.2708 17.125 23.0625 17.2083 22.875 17.375L19.5 20.75L18.125 19.375C17.9375 19.2083 17.7292 19.125 17.5 19.125C17.2708 19.125 17.0625 19.2083 16.875 19.375C16.7083 19.5625 16.625 19.7708 16.625 20C16.625 20.2292 16.7083 20.4375 16.875 20.625L18.875 22.625C19.0625 22.7917 19.2708 22.875 19.5 22.875C19.7292 22.875 19.9375 22.7917 20.125 22.625L24.125 18.625Z" fill="white"/>
</svg>
