<svg width="23" height="24" viewBox="0 0 23 24" fill="none" xmlns="http://www.w3.org/2000/svg">
<path d="M11.5 0.824219C17.6875 0.824219 22.75 5.88672 22.75 12.0742C22.75 18.3086 17.6875 23.3242 11.5 23.3242C5.26562 23.3242 0.25 18.3086 0.25 12.0742C0.25 5.88672 5.26562 0.824219 11.5 0.824219ZM11.5 21.0742C16.4219 21.0742 20.5 17.043 20.5 12.0742C20.5 7.15234 16.4219 3.07422 11.5 3.07422C6.53125 3.07422 2.5 7.15234 2.5 12.0742C2.5 17.043 6.53125 21.0742 11.5 21.0742ZM16 10.9492C16.6094 10.9492 17.125 11.4648 17.125 12.0742C17.125 12.7305 16.6094 13.1992 16 13.1992H12.625V16.5742C12.625 17.2305 12.1094 17.6992 11.5 17.6992C10.8438 17.6992 10.375 17.2305 10.375 16.5742V13.1992H7C6.34375 13.1992 5.875 12.7305 5.875 12.0742C5.875 11.4648 6.34375 10.9492 7 10.9492H10.375V7.57422C10.375 6.96484 10.8438 6.44922 11.5 6.44922C12.1094 6.44922 12.625 6.96484 12.625 7.57422V10.9492H16Z" fill="white"/>
</svg>
