<svg width="24" height="25" viewBox="0 0 24 25" fill="none" xmlns="http://www.w3.org/2000/svg">
<path d="M22.5 9.24609C23.3906 9.76172 24 10.7461 24 11.8242C24 12.9492 23.3906 13.9336 22.5 14.4492V21.5742C22.5 22.043 22.125 23.0742 21 23.0742C20.6719 23.0742 20.25 22.9336 20.0625 22.7461L16.0312 19.5586C14.0625 17.9648 11.5312 17.0742 9 17.0742H8.67188C8.15625 19.2773 10.0312 21.5742 10.0312 21.6211C10.4531 22.0898 10.5938 22.8398 10.3594 23.4961C10.125 24.1523 9.5625 24.5742 9 24.5742H6.70312C6.23438 24.5742 5.8125 24.3867 5.53125 23.9648C5.4375 23.8242 3.28125 20.7305 3.79688 17.0742H3C1.3125 17.0742 0 15.7617 0 14.0742V9.57422C0 7.93359 1.3125 6.57422 3 6.57422H9C11.5312 6.57422 14.0625 5.73047 16.0781 4.13672L20.0625 0.949219C20.2969 0.714844 20.625 0.574219 21 0.574219C22.1719 0.574219 22.5 1.69922 22.5 2.07422V9.24609ZM3 14.8242H9V8.82422H3C2.57812 8.82422 2.25 9.19922 2.25 9.57422V14.0742C2.25 14.4961 2.57812 14.8242 3 14.8242ZM20.25 20.0273V3.66797L17.4375 5.87109C15.6562 7.32422 13.5 8.26172 11.25 8.63672V15.0586C13.5 15.4336 15.6562 16.3711 17.4375 17.8242L20.25 20.0273Z" fill="#2D3C68"/>
</svg>
