<svg width="9" height="8" viewBox="0 0 9 8" fill="none" xmlns="http://www.w3.org/2000/svg">
<path d="M8.21875 6.23047C8.57031 6.60547 8.57031 7.19141 8.21875 7.56641C7.84375 7.91797 7.25781 7.91797 6.88281 7.56641L4.75 5.41016L2.59375 7.56641C2.21875 7.91797 1.63281 7.91797 1.25781 7.56641C0.90625 7.19141 0.90625 6.60547 1.25781 6.23047L3.41406 4.07422L1.25781 1.94141C0.90625 1.56641 0.90625 0.980469 1.25781 0.605469C1.63281 0.253906 2.21875 0.253906 2.59375 0.605469L4.75 2.76172L6.88281 0.605469C7.25781 0.253906 7.84375 0.253906 8.21875 0.605469C8.57031 0.980469 8.57031 1.56641 8.21875 1.94141L6.0625 4.07422L8.21875 6.23047Z" fill="#CD0000"/>
</svg>
