<svg width="41" height="41" viewBox="0 0 41 41" fill="none" xmlns="http://www.w3.org/2000/svg">
<rect x="0.760742" y="1" width="39" height="39" rx="19.5" stroke="#808080"/>
<path d="M20.2607 20.5C18.042 20.5 16.2607 18.7188 16.2607 16.5C16.2607 14.3125 18.042 12.5 20.2607 12.5C22.4482 12.5 24.2607 14.3125 24.2607 16.5C24.2607 18.7188 22.4482 20.5 20.2607 20.5ZM20.2607 13.5C18.6045 13.5 17.2607 14.875 17.2607 16.5C17.2607 18.1562 18.6045 19.5 20.2607 19.5C21.8857 19.5 23.2607 18.1562 23.2607 16.5C23.2607 14.875 21.8857 13.5 20.2607 13.5ZM21.8232 22C24.8232 22 27.2607 24.4375 27.2607 27.4375C27.2607 28.0312 26.7607 28.5 26.167 28.5H14.3232C13.7295 28.5 13.2607 28.0312 13.2607 27.4375C13.2607 24.4375 15.667 22 18.667 22H21.8232ZM26.167 27.5C26.1982 27.5 26.2607 27.4688 26.2607 27.4375C26.2607 25 24.2607 23 21.8232 23H18.667C16.2295 23 14.2607 25 14.2607 27.4375C14.2607 27.4688 14.292 27.5 14.3232 27.5H26.167Z" fill="#808080"/>
</svg>
