<svg width="19" height="25" viewBox="0 0 19 25" fill="none" xmlns="http://www.w3.org/2000/svg">
<path d="M4.63574 12.0742C4.63574 11.2773 5.29199 10.5742 6.13574 10.5742H13.6357C14.4326 10.5742 15.1357 11.2773 15.1357 12.0742V15.0742C15.1357 15.918 14.4326 16.5742 13.6357 16.5742H6.13574C5.29199 16.5742 4.63574 15.918 4.63574 15.0742V12.0742ZM17.9951 4.48047C18.5576 5.04297 18.8857 5.79297 18.8857 6.58984V21.0742C18.8857 22.7617 17.5264 24.0742 15.8857 24.0742H3.88574C2.19824 24.0742 0.885742 22.7617 0.885742 21.0742V3.07422C0.885742 1.43359 2.19824 0.0742188 3.88574 0.0742188H12.3701C13.167 0.0742188 13.917 0.402344 14.4795 0.964844L17.9951 4.48047ZM16.6357 21.0742V7.57422H12.8857C12.042 7.57422 11.3857 6.91797 11.3857 6.07422V2.37109H3.88574C3.46387 2.37109 3.13574 2.69922 3.13574 3.12109V21.0742C3.13574 21.4961 3.46387 21.8242 3.88574 21.8242H15.8857C16.2607 21.8242 16.6357 21.4961 16.6357 21.0742ZM5.38574 6.07422C4.96387 6.07422 4.63574 5.74609 4.63574 5.32422C4.63574 4.94922 4.96387 4.57422 5.38574 4.57422H9.13574C9.51074 4.57422 9.88574 4.94922 9.88574 5.32422C9.88574 5.74609 9.51074 6.07422 9.13574 6.07422H5.38574ZM5.38574 9.07422C4.96387 9.07422 4.63574 8.74609 4.63574 8.32422C4.63574 7.94922 4.96387 7.57422 5.38574 7.57422H9.13574C9.51074 7.57422 9.88574 7.94922 9.88574 8.32422C9.88574 8.74609 9.51074 9.07422 9.13574 9.07422H5.38574ZM14.3857 18.0742C14.7607 18.0742 15.1357 18.4492 15.1357 18.8242C15.1357 19.2461 14.7607 19.5742 14.3857 19.5742H10.6357C10.2139 19.5742 9.88574 19.2461 9.88574 18.8242C9.88574 18.4492 10.2139 18.0742 10.6357 18.0742H14.3857Z" fill="#2D3C68"/>
</svg>
