<svg width="16" height="13" viewBox="0 0 16 13" fill="none" xmlns="http://www.w3.org/2000/svg">
<path d="M10.6357 4.19922C10.6357 6.49609 8.43262 8.32422 5.76074 8.32422C5.31543 8.32422 4.89355 8.27734 4.47168 8.18359C3.76855 8.62891 2.7373 9.07422 1.44824 9.07422C1.21387 9.07422 1.00293 8.95703 0.932617 8.72266C0.838867 8.51172 0.862305 8.27734 1.02637 8.08984C1.0498 8.08984 1.56543 7.52734 1.94043 6.77734C1.28418 6.07422 0.885742 5.18359 0.885742 4.19922C0.885742 1.92578 3.06543 0.0742188 5.76074 0.0742188C8.43262 0.0742188 10.6357 1.92578 10.6357 4.19922ZM5.76074 7.19922C7.82324 7.19922 9.51074 5.86328 9.51074 4.19922C9.51074 2.55859 7.82324 1.19922 5.76074 1.19922C3.6748 1.19922 2.01074 2.55859 2.01074 4.19922C2.01074 5.04297 2.40918 5.65234 2.76074 6.00391L3.32324 6.58984L2.94824 7.31641C2.85449 7.45703 2.76074 7.62109 2.66699 7.78516C3.08887 7.66797 3.4873 7.48047 3.88574 7.22266L4.28418 6.98828L4.72949 7.08203C5.08105 7.17578 5.40918 7.19922 5.76074 7.19922ZM14.9248 10.4805C15.2998 11.2305 15.8154 11.7695 15.8154 11.793C15.8857 11.8398 15.8857 11.9102 15.8623 11.9805C15.8389 12.0508 15.7686 12.0742 15.6982 12.0742C14.8545 12.0742 14.1279 11.8633 13.542 11.582C12.9092 11.8867 12.1592 12.0742 11.3857 12.0742C9.25293 12.0742 7.49512 10.7617 7.00293 8.95703C9.51074 8.46484 11.3857 6.51953 11.3857 4.19922C11.3857 4.08203 11.3623 3.96484 11.3623 3.84766C11.3623 3.84766 11.3623 3.82422 11.3857 3.82422C13.8701 3.82422 15.8857 5.67578 15.8857 7.94922C15.8857 8.91016 15.5107 9.77734 14.9248 10.4805Z" fill="#2D3C68"/>
</svg>
