<svg width="24" height="22" viewBox="0 0 24 22" fill="none" xmlns="http://www.w3.org/2000/svg">
<path d="M7.875 19.25C8.5625 19.3125 8.9375 19.6875 9 20.375C8.9375 21.0625 8.5625 21.4375 7.875 21.5H4.5C3.21875 21.4688 2.15625 21.0312 1.3125 20.1875C0.46875 19.3438 0.03125 18.2812 0 17V5C0.03125 3.71875 0.46875 2.65625 1.3125 1.8125C2.15625 0.96875 3.21875 0.53125 4.5 0.5H7.875C8.5625 0.5625 8.9375 0.9375 9 1.625C8.9375 2.3125 8.5625 2.6875 7.875 2.75H4.5C3.875 2.78125 3.34375 3 2.90625 3.40625C2.5 3.84375 2.28125 4.375 2.25 5V17C2.28125 17.625 2.5 18.1562 2.90625 18.5938C3.34375 19 3.875 19.2188 4.5 19.25H7.875ZM23.625 10.2031C23.875 10.4219 24 10.7031 24 11.0469C24 11.3594 23.875 11.625 23.625 11.8438L16.5 18.125C16.1875 18.375 15.8281 18.5 15.4219 18.5C15.2031 18.5 14.9844 18.4531 14.7656 18.3594C14.2031 18.0781 13.9062 17.6094 13.875 16.9531V14.375H8.25C7.71875 14.375 7.28125 14.1875 6.9375 13.8125C6.5625 13.4688 6.375 13.0312 6.375 12.5V9.5C6.375 8.96875 6.5625 8.53125 6.9375 8.1875C7.28125 7.8125 7.71875 7.625 8.25 7.625H13.875V5.04688C13.9062 4.39062 14.2031 3.92188 14.7656 3.64062C15.3906 3.39063 15.9688 3.46875 16.5 3.875L23.625 10.2031ZM16.125 15.4062L21.1875 11L16.125 6.54688V9.82812H8.625V12.0781H16.125V15.4062Z" fill="#2D3C68"/>
</svg>
