<svg width="15" height="16" viewBox="0 0 15 16" fill="none" xmlns="http://www.w3.org/2000/svg">
<path d="M7.5 9C8.20833 9.02083 8.80208 9.26042 9.28125 9.71875C9.73958 10.1979 9.97917 10.7917 10 11.5C9.97917 11.8125 9.8125 11.9792 9.5 12H3.5C3.1875 11.9792 3.02083 11.8125 3 11.5C3.02083 10.7917 3.26042 10.1979 3.71875 9.71875C4.19792 9.26042 4.79167 9.02083 5.5 9H7.5ZM6.5 8C5.9375 7.97917 5.46875 7.78125 5.09375 7.40625C4.71875 7.03125 4.52083 6.5625 4.5 6C4.52083 5.4375 4.71875 4.96875 5.09375 4.59375C5.46875 4.21875 5.9375 4.02083 6.5 4C7.0625 4.02083 7.53125 4.21875 7.90625 4.59375C8.28125 4.96875 8.47917 5.4375 8.5 6C8.47917 6.5625 8.28125 7.03125 7.90625 7.40625C7.53125 7.78125 7.0625 7.97917 6.5 8ZM14.5 10C14.8125 10.0208 14.9792 10.1875 15 10.5V12.5C14.9792 12.8125 14.8125 12.9792 14.5 13H14V10H14.5ZM14.5 2C14.8125 2.02083 14.9792 2.1875 15 2.5V4.5C14.9792 4.8125 14.8125 4.97917 14.5 5H14V2H14.5ZM14.5 6C14.8125 6.02083 14.9792 6.1875 15 6.5V8.5C14.9792 8.8125 14.8125 8.97917 14.5 9H14V6H14.5ZM11 0C11.5625 0.0208333 12.0312 0.21875 12.4062 0.59375C12.7812 0.96875 12.9792 1.4375 13 2V14C12.9792 14.5625 12.7812 15.0312 12.4062 15.4062C12.0312 15.7812 11.5625 15.9792 11 16H2C1.4375 15.9792 0.96875 15.7812 0.59375 15.4062C0.21875 15.0312 0.0208333 14.5625 0 14V2C0.0208333 1.4375 0.21875 0.96875 0.59375 0.59375C0.96875 0.21875 1.4375 0.0208333 2 0H11ZM11.5 14V2C11.4792 1.6875 11.3125 1.52083 11 1.5H2C1.6875 1.52083 1.52083 1.6875 1.5 2V14C1.52083 14.3125 1.6875 14.4792 2 14.5H11C11.3125 14.4792 11.4792 14.3125 11.5 14Z" fill="#333333"/>
</svg>
