<svg width="40" height="40" viewBox="0 0 40 40" fill="none" xmlns="http://www.w3.org/2000/svg">
<rect width="40" height="40" rx="20" fill="#2D3C68"/>
<path d="M16.75 23.5C16.4375 23.4792 16.2708 23.3125 16.25 23C16.2708 22.6875 16.4375 22.5208 16.75 22.5H19.25C19.5625 22.5208 19.7292 22.6875 19.75 23C19.7292 23.3125 19.5625 23.4792 19.25 23.5H16.75ZM25 13C24.1458 13.0208 23.4375 13.3125 22.875 13.875C22.3125 14.4375 22.0208 15.1458 22 16V18H22.5C23.2083 18.0208 23.8021 18.2604 24.2812 18.7188C24.7396 19.1979 24.9792 19.7917 25 20.5V25.5C24.9792 26.2083 24.7396 26.8021 24.2812 27.2812C23.8021 27.7396 23.2083 27.9792 22.5 28H13.5C12.7917 27.9792 12.1979 27.7396 11.7188 27.2812C11.2604 26.8021 11.0208 26.2083 11 25.5V20.5C11.0208 19.7917 11.2604 19.1979 11.7188 18.7188C12.1979 18.2604 12.7917 18.0208 13.5 18H21V16C21.0208 14.875 21.4062 13.9271 22.1562 13.1562C22.9271 12.4062 23.875 12.0208 25 12C26.125 12.0208 27.0729 12.4062 27.8438 13.1562C28.5938 13.9271 28.9792 14.875 29 16V18.5C28.9792 18.8125 28.8125 18.9792 28.5 19C28.1875 18.9792 28.0208 18.8125 28 18.5V16C27.9792 15.1458 27.6875 14.4375 27.125 13.875C26.5625 13.3125 25.8542 13.0208 25 13ZM12 20.5V25.5C12.0208 25.9167 12.1667 26.2708 12.4375 26.5625C12.7292 26.8333 13.0833 26.9792 13.5 27H22.5C22.9167 26.9792 23.2708 26.8333 23.5625 26.5625C23.8333 26.2708 23.9792 25.9167 24 25.5V20.5C23.9792 20.0833 23.8333 19.7292 23.5625 19.4375C23.2708 19.1667 22.9167 19.0208 22.5 19H13.5C13.0833 19.0208 12.7292 19.1667 12.4375 19.4375C12.1667 19.7292 12.0208 20.0833 12 20.5Z" fill="white"/>
</svg>
