<svg width="40" height="41" viewBox="0 0 40 41" fill="none" xmlns="http://www.w3.org/2000/svg">
<rect x="0.5" y="1.06836" width="39" height="39" rx="19.5" stroke="#808080"/>
<path d="M16.75 24.0684C16.4375 24.0475 16.2708 23.8809 16.25 23.5684C16.2708 23.2559 16.4375 23.0892 16.75 23.0684H19.25C19.5625 23.0892 19.7292 23.2559 19.75 23.5684C19.7292 23.8809 19.5625 24.0475 19.25 24.0684H16.75ZM25 13.5684C24.1458 13.5892 23.4375 13.8809 22.875 14.4434C22.3125 15.0059 22.0208 15.7142 22 16.5684V18.5684H22.5C23.2083 18.5892 23.8021 18.8288 24.2812 19.2871C24.7396 19.7663 24.9792 20.36 25 21.0684V26.0684C24.9792 26.7767 24.7396 27.3704 24.2812 27.8496C23.8021 28.3079 23.2083 28.5475 22.5 28.5684H13.5C12.7917 28.5475 12.1979 28.3079 11.7188 27.8496C11.2604 27.3704 11.0208 26.7767 11 26.0684V21.0684C11.0208 20.36 11.2604 19.7663 11.7188 19.2871C12.1979 18.8288 12.7917 18.5892 13.5 18.5684H21V16.5684C21.0208 15.4434 21.4062 14.4954 22.1562 13.7246C22.9271 12.9746 23.875 12.5892 25 12.5684C26.125 12.5892 27.0729 12.9746 27.8438 13.7246C28.5938 14.4954 28.9792 15.4434 29 16.5684V19.0684C28.9792 19.3809 28.8125 19.5475 28.5 19.5684C28.1875 19.5475 28.0208 19.3809 28 19.0684V16.5684C27.9792 15.7142 27.6875 15.0059 27.125 14.4434C26.5625 13.8809 25.8542 13.5892 25 13.5684ZM12 21.0684V26.0684C12.0208 26.485 12.1667 26.8392 12.4375 27.1309C12.7292 27.4017 13.0833 27.5475 13.5 27.5684H22.5C22.9167 27.5475 23.2708 27.4017 23.5625 27.1309C23.8333 26.8392 23.9792 26.485 24 26.0684V21.0684C23.9792 20.6517 23.8333 20.2975 23.5625 20.0059C23.2708 19.735 22.9167 19.5892 22.5 19.5684H13.5C13.0833 19.5892 12.7292 19.735 12.4375 20.0059C12.1667 20.2975 12.0208 20.6517 12 21.0684Z" fill="#808080"/>
</svg>
