<svg width="24" height="25" viewBox="0 0 24 25" fill="none" xmlns="http://www.w3.org/2000/svg">
<path d="M15.75 7.17578C15.75 6.73828 15.8906 6.37891 16.1719 6.09766C16.4531 5.81641 16.8125 5.67578 17.25 5.67578C17.6875 5.67578 18.0469 5.81641 18.3281 6.09766C18.6094 6.37891 18.75 6.73828 18.75 7.17578C18.75 7.61328 18.6094 7.97266 18.3281 8.25391C18.0469 8.53516 17.6875 8.67578 17.25 8.67578C16.8125 8.67578 16.4531 8.53516 16.1719 8.25391C15.8906 7.97266 15.75 7.61328 15.75 7.17578ZM15.75 16.9258C15.3125 16.9258 14.875 16.8945 14.4375 16.832L13.125 18.0508C12.9375 18.3008 12.6875 18.4258 12.375 18.4258H10.5V20.3008C10.4375 20.9883 10.0625 21.3633 9.375 21.4258H7.5V23.3008C7.4375 23.9883 7.0625 24.3633 6.375 24.4258H1.125C0.4375 24.3633 0.0625 23.9883 0 23.3008V18.0508C0 17.7383 0.109375 17.4727 0.328125 17.2539L7.59375 9.98828C7.53125 9.55078 7.5 9.11328 7.5 8.67578C7.5625 6.33203 8.375 4.39453 9.9375 2.86328C11.4688 1.30078 13.4062 0.488281 15.75 0.425781C18.0938 0.488281 20.0312 1.30078 21.5625 2.86328C23.125 4.39453 23.9375 6.33203 24 8.67578C23.9375 11.0195 23.125 12.957 21.5625 14.4883C20.0312 16.0508 18.0938 16.8633 15.75 16.9258ZM15.75 14.6758C17.4375 14.6445 18.8594 14.0664 20.0156 12.9414C21.1406 11.7852 21.7188 10.3633 21.75 8.67578C21.7188 6.98828 21.1406 5.56641 20.0156 4.41016C18.8594 3.28516 17.4375 2.70703 15.75 2.67578C14.0625 2.70703 12.6406 3.28516 11.4844 4.41016C10.3594 5.56641 9.78125 6.98828 9.75 8.67578C9.75 8.98828 9.78125 9.30078 9.84375 9.61328L9.98438 10.7852L2.20312 18.5195V22.1758H5.20312V19.1758H8.20312V16.1758H11.9062L13.6875 14.4414L14.8125 14.582C15.125 14.6445 15.4375 14.6758 15.75 14.6758Z" fill="#2D3C68"/>
</svg>
