<svg width="12" height="12" viewBox="0 0 12 12" fill="none" xmlns="http://www.w3.org/2000/svg">
<path d="M5.88574 0.824219C8.76855 0.824219 11.1357 3.19141 11.1357 6.07422C11.1357 8.98047 8.76855 11.3242 5.88574 11.3242C4.64355 11.3242 3.44824 10.9023 2.51074 10.1289C2.27637 9.91797 2.25293 9.56641 2.44043 9.33203C2.65137 9.09766 3.00293 9.05078 3.2373 9.26172C3.96387 9.87109 4.90137 10.1992 5.88574 10.1992C8.15918 10.1992 10.0107 8.37109 10.0107 6.07422C10.0107 3.80078 8.15918 1.94922 5.88574 1.94922C4.31543 1.94922 2.90918 2.86328 2.20605 4.19922H3.82324C4.12793 4.19922 4.38574 4.45703 4.38574 4.76172C4.38574 5.08984 4.12793 5.32422 3.82324 5.32422H0.823242C0.495117 5.32422 0.260742 5.08984 0.260742 4.76172V1.38672C0.260742 1.08203 0.495117 0.824219 0.823242 0.824219C1.12793 0.824219 1.38574 1.08203 1.38574 1.38672V3.42578C2.2998 1.85547 4.01074 0.824219 5.88574 0.824219ZM5.88574 3.07422C6.19043 3.07422 6.44824 3.33203 6.44824 3.63672V6.16797L7.50293 6.94141C7.76074 7.12891 7.83105 7.48047 7.64355 7.71484C7.52637 7.87891 7.3623 7.94922 7.1748 7.94922C7.08105 7.94922 6.96387 7.92578 6.87012 7.85547L5.55762 6.91797C5.39355 6.82422 5.32324 6.63672 5.32324 6.44922V3.63672C5.32324 3.33203 5.55762 3.07422 5.88574 3.07422Z" fill="#897846"/>
</svg>
