<svg width="41" height="41" viewBox="0 0 41 41" fill="none" xmlns="http://www.w3.org/2000/svg">
<rect x="0.0107422" y="0.5" width="40" height="40" rx="20" fill="#2D3C68"/>
<path d="M20.5107 21.5C21.8857 21.5 23.0107 22.625 23.0107 24C23.0107 24.2812 22.7607 24.5 22.5107 24.5C22.2295 24.5 22.0107 24.2812 22.0107 24C22.0107 23.1875 21.3232 22.5 20.5107 22.5H18.5107C17.667 22.5 17.0107 23.1875 17.0107 24C17.0107 24.2812 16.7607 24.5 16.5107 24.5C16.2295 24.5 16.0107 24.2812 16.0107 24C16.0107 22.625 17.1045 21.5 18.5107 21.5H20.5107ZM27.5107 18.5C27.7607 18.5 28.0107 18.75 28.0107 19V21C28.0107 21.2812 27.7607 21.5 27.5107 21.5H27.0107V18.5H27.5107ZM19.5107 20.5C18.3857 20.5 17.5107 19.625 17.5107 18.5C17.5107 17.4062 18.3857 16.5 19.5107 16.5C20.6045 16.5 21.5107 17.4062 21.5107 18.5C21.5107 19.625 20.6045 20.5 19.5107 20.5ZM19.5107 17.5C18.9482 17.5 18.5107 17.9688 18.5107 18.5C18.5107 19.0625 18.9482 19.5 19.5107 19.5C20.042 19.5 20.5107 19.0625 20.5107 18.5C20.5107 17.9688 20.042 17.5 19.5107 17.5ZM27.5107 22.5C27.7607 22.5 28.0107 22.75 28.0107 23V25C28.0107 25.2812 27.7607 25.5 27.5107 25.5H27.0107V22.5H27.5107ZM27.5107 14.5C27.7607 14.5 28.0107 14.75 28.0107 15V17C28.0107 17.2812 27.7607 17.5 27.5107 17.5H27.0107V14.5H27.5107ZM24.0107 12.5C25.1045 12.5 26.0107 13.4062 26.0107 14.5V26.5C26.0107 27.625 25.1045 28.5 24.0107 28.5H15.0107C13.8857 28.5 13.0107 27.625 13.0107 26.5V14.5C13.0107 13.4062 13.8857 12.5 15.0107 12.5H24.0107ZM25.0107 26.5V14.5C25.0107 13.9688 24.542 13.5 24.0107 13.5H15.0107C14.4482 13.5 14.0107 13.9688 14.0107 14.5V26.5C14.0107 27.0625 14.4482 27.5 15.0107 27.5H24.0107C24.542 27.5 25.0107 27.0625 25.0107 26.5Z" fill="white"/>
</svg>
