<svg width="19" height="25" viewBox="0 0 19 25" fill="none" xmlns="http://www.w3.org/2000/svg">
<path d="M17.9951 5.05469C18.5576 5.61719 18.8857 6.36719 18.8857 7.16406V21.6484C18.8857 23.3359 17.5264 24.6484 15.8857 24.6484H3.88574C2.19824 24.6484 0.885742 23.3359 0.885742 21.6484V3.64844C0.885742 2.00781 2.19824 0.648438 3.88574 0.648438H12.3701C13.167 0.648438 13.917 0.976562 14.4795 1.53906L17.9951 5.05469ZM16.6357 21.6484V8.14844H12.8857C12.042 8.14844 11.3857 7.49219 11.3857 6.64844V2.94531H3.88574C3.46387 2.94531 3.13574 3.27344 3.13574 3.69531V21.6484C3.13574 22.0703 3.46387 22.3984 3.88574 22.3984H15.8857C16.2607 22.3984 16.6357 22.0703 16.6357 21.6484ZM8.66699 15.8828L12.3701 11.5703C12.792 11.1016 13.4951 11.0547 13.9639 11.4297C14.4326 11.8516 14.4795 12.5547 14.1045 13.0234L9.60449 18.2734C9.37012 18.5078 9.08887 18.6484 8.76074 18.6484C8.43262 18.6484 8.15137 18.5547 7.96387 18.3203L5.71387 16.0703C5.24512 15.6484 5.24512 14.9453 5.71387 14.5234C6.13574 14.0547 6.83887 14.0547 7.26074 14.5234L8.66699 15.8828Z" fill="#2D3C68"/>
</svg>
