<svg width="41" height="41" viewBox="0 0 41 41" fill="none" xmlns="http://www.w3.org/2000/svg">
<rect x="1.01074" y="1" width="39" height="39" rx="19.5" stroke="#808080"/>
<path d="M25.5107 12.5C26.292 12.5 26.5107 13.25 26.5107 13.5V26.5C26.5107 26.8125 26.2607 27.5 25.5107 27.5C25.292 27.5 25.0107 27.4062 24.8857 27.2812L22.1982 25.1562C20.8857 24.0938 19.1982 23.5 17.5107 23.5H14.5107C13.3857 23.5 12.5107 22.625 12.5107 21.5V18.5C12.5107 17.4062 13.3857 16.5 14.5107 16.5H17.5107C19.1982 16.5 20.8857 15.9375 22.2295 14.875L24.8857 12.75C25.042 12.5938 25.2607 12.5 25.5107 12.5ZM17.5107 22.5V17.5H14.5107C13.9482 17.5 13.5107 17.9688 13.5107 18.5V21.5C13.5107 22.0625 13.9482 22.5 14.5107 22.5H17.5107ZM25.4795 26.5C25.4795 26.5 25.5107 26.5 25.5107 26.4688V13.5312H25.4795L22.8232 15.6562C21.5732 16.6562 20.0732 17.25 18.5107 17.4375V22.5938C20.0732 22.7812 21.5732 23.375 22.8232 24.375L25.4795 26.5ZM18.4795 24.5C18.5107 25.3125 19.1357 26.0938 19.1357 26.0938C19.4795 26.5 19.6045 27.0938 19.417 27.5938C19.1982 28.1562 18.7295 28.5 18.1982 28.5H16.5732C16.167 28.5 15.792 28.3125 15.542 27.9688C15.4482 27.8125 14.4482 26.3438 14.5107 24.5C14.5107 24.2188 14.7295 24 15.0107 24C15.292 24.0312 15.5107 24.25 15.5107 24.5312C15.4482 26.0938 16.3232 27.3438 16.3857 27.375C16.417 27.4688 16.5107 27.5 16.5732 27.5H18.1982C18.292 27.5 18.417 27.4062 18.4482 27.2812C18.542 27.0938 18.4795 26.875 18.3857 26.75C18.3857 26.75 17.5107 25.7188 17.4795 24.5312C17.4795 24.25 17.6982 24.0312 17.9795 24C18.2607 24.0312 18.4795 24.2188 18.4795 24.5ZM28.0107 18.5C28.2607 18.5 28.5107 18.75 28.5107 19V21C28.5107 21.2812 28.2607 21.5 28.0107 21.5C27.7295 21.5 27.5107 21.2812 27.5107 21V19C27.5107 18.75 27.7295 18.5 28.0107 18.5Z" fill="#808080"/>
</svg>
