<svg width="41" height="41" viewBox="0 0 41 41" fill="none" xmlns="http://www.w3.org/2000/svg">
<rect x="1.26074" y="1" width="39" height="39" rx="19.5" stroke="#808080"/>
<path d="M27.1982 14.4688C29.167 16.1562 29.2607 19.1562 27.5107 20.9688L21.4482 27.2188C21.2607 27.4062 21.0107 27.5 20.7295 27.5C20.4795 27.5 20.2295 27.4062 20.042 27.2188L13.9795 20.9688C12.2295 19.1562 12.3232 16.1562 14.292 14.4688C16.292 12.7812 18.8545 13.5938 20.1357 14.9062L20.7607 15.5312L21.3545 14.9062C22.9482 13.25 25.4795 13.0312 27.1982 14.4688ZM26.792 20.2812C27.9795 19.0312 28.2295 16.6875 26.542 15.25C24.8232 13.7812 22.792 14.8438 22.0732 15.5938L21.4482 16.25L22.6045 17.4062C22.7295 17.5312 22.7607 17.6875 22.7295 17.8438C22.6982 18.0312 22.6045 18.1562 22.4482 18.2188L19.0732 19.6875L21.6357 22.6875C21.792 22.9062 21.792 23.2188 21.5732 23.4062C21.4795 23.4688 21.3545 23.5 21.2607 23.5C21.1045 23.5 20.9795 23.4688 20.8545 23.3438L17.8545 19.8438C17.7607 19.7188 17.7295 19.5625 17.7607 19.4062C17.792 19.25 17.8857 19.125 18.042 19.0625L21.3857 17.5938L19.417 15.5938C18.667 14.8438 16.667 13.7812 14.9482 15.25C13.2607 16.6875 13.5107 19.0312 14.6982 20.2812L20.7607 26.5312L26.792 20.2812Z" fill="#808080"/>
</svg>
