<svg width="22" height="19" viewBox="0 0 22 19" fill="none" xmlns="http://www.w3.org/2000/svg">
<path d="M20.3857 7.57422C21.1826 7.57422 21.8857 8.27734 21.8857 9.07422C21.8857 9.91797 21.1826 10.5742 20.3857 10.5742H2.38574C1.54199 10.5742 0.885742 9.91797 0.885742 9.07422C0.885742 8.27734 1.54199 7.57422 2.38574 7.57422H20.3857ZM20.3857 15.0742C21.1826 15.0742 21.8857 15.7773 21.8857 16.5742C21.8857 17.418 21.1826 18.0742 20.3857 18.0742H2.38574C1.54199 18.0742 0.885742 17.418 0.885742 16.5742C0.885742 15.7773 1.54199 15.0742 2.38574 15.0742H20.3857ZM20.3857 0.0742188C21.1826 0.0742188 21.8857 0.777344 21.8857 1.57422C21.8857 2.41797 21.1826 3.07422 20.3857 3.07422H2.38574C1.54199 3.07422 0.885742 2.41797 0.885742 1.57422C0.885742 0.777344 1.54199 0.0742188 2.38574 0.0742188H20.3857Z" fill="#2D3C68"/>
</svg>
