<svg width="14" height="17" viewBox="0 0 14 17" fill="none" xmlns="http://www.w3.org/2000/svg">
<path d="M4.75 2.06836H9.25V0.818359C9.29167 0.360026 9.54167 0.110026 10 0.0683594C10.4583 0.110026 10.7083 0.360026 10.75 0.818359V2.06836H12C12.5625 2.08919 13.0312 2.28711 13.4062 2.66211C13.7812 3.03711 13.9792 3.50586 14 4.06836V14.0684C13.9792 14.6309 13.7812 15.0996 13.4062 15.4746C13.0312 15.8496 12.5625 16.0475 12 16.0684H2C1.4375 16.0475 0.96875 15.8496 0.59375 15.4746C0.21875 15.0996 0.0208333 14.6309 0 14.0684V4.06836C0.0208333 3.50586 0.21875 3.03711 0.59375 2.66211C0.96875 2.28711 1.4375 2.08919 2 2.06836H3.25V0.818359C3.29167 0.360026 3.54167 0.110026 4 0.0683594C4.45833 0.110026 4.70833 0.360026 4.75 0.818359V2.06836ZM1.5 7.81836H4V6.06836H1.5V7.81836ZM1.5 9.31836V11.3184H4V9.31836H1.5ZM5.5 9.31836V11.3184H8.5V9.31836H5.5ZM10 9.31836V11.3184H12.5V9.31836H10ZM12.5 6.06836H10V7.81836H12.5V6.06836ZM12.5 12.8184H10V14.5684H12C12.3125 14.5475 12.4792 14.3809 12.5 14.0684V12.8184ZM8.5 12.8184H5.5V14.5684H8.5V12.8184ZM4 12.8184H1.5V14.0684C1.52083 14.3809 1.6875 14.5475 2 14.5684H4V12.8184ZM8.5 6.06836H5.5V7.81836H8.5V6.06836Z" fill="white"/>
</svg>
