<svg width="41" height="41" viewBox="0 0 41 41" fill="none" xmlns="http://www.w3.org/2000/svg">
<rect x="0.5" y="0.568359" width="40" height="40" rx="20" fill="#2D3C68"/>
<path d="M20.5 20.5684C19.375 20.5475 18.4271 20.1621 17.6562 19.4121C16.9062 18.6413 16.5208 17.6934 16.5 16.5684C16.5208 15.4434 16.9062 14.4954 17.6562 13.7246C18.4271 12.9746 19.375 12.5892 20.5 12.5684C21.625 12.5892 22.5729 12.9746 23.3438 13.7246C24.0938 14.4954 24.4792 15.4434 24.5 16.5684C24.4792 17.6934 24.0938 18.6413 23.3438 19.4121C22.5729 20.1621 21.625 20.5475 20.5 20.5684ZM20.5 13.5684C19.6458 13.5892 18.9375 13.8809 18.375 14.4434C17.8125 15.0059 17.5208 15.7142 17.5 16.5684C17.5208 17.4225 17.8125 18.1309 18.375 18.6934C18.9375 19.2559 19.6458 19.5475 20.5 19.5684C21.3542 19.5475 22.0625 19.2559 22.625 18.6934C23.1875 18.1309 23.4792 17.4225 23.5 16.5684C23.4792 15.7142 23.1875 15.0059 22.625 14.4434C22.0625 13.8809 21.3542 13.5892 20.5 13.5684ZM22.0938 22.0684C23.6146 22.11 24.8854 22.6413 25.9062 23.6621C26.9271 24.6829 27.4583 25.9538 27.5 27.4746C27.5 27.7871 27.3958 28.0475 27.1875 28.2559C26.9792 28.4642 26.7188 28.5684 26.4062 28.5684H14.5938C14.2812 28.5684 14.0208 28.4642 13.8125 28.2559C13.6042 28.0475 13.5 27.7871 13.5 27.4746C13.5417 25.9538 14.0729 24.6829 15.0938 23.6621C16.1146 22.6413 17.3854 22.11 18.9062 22.0684H22.0938ZM26.4062 27.5684C26.4688 27.5684 26.5 27.5371 26.5 27.4746C26.4583 26.2246 26.0312 25.1829 25.2188 24.3496C24.3854 23.5371 23.3438 23.11 22.0938 23.0684H18.9062C17.6562 23.11 16.6146 23.5371 15.7812 24.3496C14.9688 25.1829 14.5417 26.2246 14.5 27.4746C14.5 27.5371 14.5312 27.5684 14.5938 27.5684H26.4062Z" fill="white"/>
</svg>
