<svg width="13" height="13" viewBox="0 0 13 13" fill="none" xmlns="http://www.w3.org/2000/svg">
<path d="M8.25 5.41797C10.1719 5.74609 11.6953 7.26953 11.9766 9.19141C12.0234 9.54297 11.7656 9.82422 11.4141 9.82422H3.5625C3.21094 9.82422 2.95312 9.54297 3 9.19141C3.28125 7.26953 4.80469 5.74609 6.75 5.41797V3.07422C6.75 2.25391 6.07031 1.57422 5.25 1.57422H3C2.15625 1.57422 1.5 2.25391 1.5 3.07422V12.0742H0V3.07422C0 1.43359 1.33594 0.0742188 3 0.0742188H5.25C6.89062 0.0742188 8.25 1.43359 8.25 3.07422V5.41797ZM7.5 12.0742C6.65625 12.0742 6 11.418 6 10.5742H9C9 11.418 8.32031 12.0742 7.5 12.0742Z" fill="#2D3C68"/>
</svg>
